+ filenameToUse=/home/horvathandras/vatic/vatic/public/videouploads/DJI_0003_gazos_gabonaban_valtok_kotcse_20180710_napos_kalaszos_T4.avi
+ filenameNoDot=DJI_0003_gazos_gabonaban_valtok_kotcse_20180710_napos_kalaszos_T4
+ FullUploadPath=/home/horvathandras/vatic/vatic/public/videouploads/DJI_0003_gazos_gabonaban_valtok_kotcse_20180710_napos_kalaszos_T4.avi
+ VideoDataDir=/home/horvathandras/vatic/vatic/videos
+ AvailableObjectTypes='PozitívROI NegatívROI Túrás ~Friss ~1-2Hetes ~Régebbi ~Egyéb1 ~Egyéb2 ~Egyéb3 Rágás ~Friss ~1-2Hetes ~Régebbi ~Egyéb1 ~Egyéb2 ~Egyéb3 Törés ~Friss ~1-2Hetes ~Régebbi ~Egyéb1 ~Egyéb2 ~Egyéb3 Taposás ~Friss ~1-2Hetes ~Régebbi ~Egyéb1 ~Egyéb2 ~Egyéb3 EgészségesNövény Egyéb1 Egyéb2 Egyéb3 Egyéb4 Egyéb5 Bizonytalan Művelőút Gktaposás Vetőhiba Széldöntés Jégkár Belvíz Aszály Erózió EgyszikűGyom KétszikűGyom EgyébNövvédelmiPR'
++ dirname /home/horvathandras/vatic/vatic/vatic_publisher.sh
+ cd /home/horvathandras/vatic/vatic
+ touch /home/horvathandras/vatic/vatic/public/videouploads/DJI_0003_gazos_gabonaban_valtok_kotcse_20180710_napos_kalaszos_T4.avi
+ chmod 744 /home/horvathandras/vatic/vatic/public/videouploads/DJI_0003_gazos_gabonaban_valtok_kotcse_20180710_napos_kalaszos_T4.avi
+ mkdir /home/horvathandras/vatic/vatic/videos/DJI_0003_gazos_gabonaban_valtok_kotcse_20180710_napos_kalaszos_T4
+ turkic extract /home/horvathandras/vatic/vatic/public/videouploads/DJI_0003_gazos_gabonaban_valtok_kotcse_20180710_napos_kalaszos_T4.avi /home/horvathandras/vatic/vatic/videos/DJI_0003_gazos_gabonaban_valtok_kotcse_20180710_napos_kalaszos_T4 --no-resize
ffmpeg version 2.8.14-0ubuntu0.16.04.1 Copyright (c) 2000-2018 the FFmpeg developers
  built with gcc 5.4.0 (Ubuntu 5.4.0-6ubuntu1~16.04.9) 20160609
  configuration: --prefix=/usr --extra-version=0ubuntu0.16.04.1 --build-suffix=-ffmpeg --toolchain=hardened --libdir=/usr/lib/x86_64-linux-gnu --incdir=/usr/include/x86_64-linux-gnu --cc=cc --cxx=g++ --enable-gpl --enable-shared --disable-stripping --disable-decoder=libopenjpeg --disable-decoder=libschroedinger --enable-avresample --enable-avisynth --enable-gnutls --enable-ladspa --enable-libass --enable-libbluray --enable-libbs2b --enable-libcaca --enable-libcdio --enable-libflite --enable-libfontconfig --enable-libfreetype --enable-libfribidi --enable-libgme --enable-libgsm --enable-libmodplug --enable-libmp3lame --enable-libopenjpeg --enable-libopus --enable-libpulse --enable-librtmp --enable-libschroedinger --enable-libshine --enable-libsnappy --enable-libsoxr --enable-libspeex --enable-libssh --enable-libtheora --enable-libtwolame --enable-libvorbis --enable-libvpx --enable-libwavpack --enable-libwebp --enable-libx265 --enable-libxvid --enable-libzvbi --enable-openal --enable-opengl --enable-x11grab --enable-libdc1394 --enable-libiec61883 --enable-libzmq --enable-frei0r --enable-libx264 --enable-libopencv
  libavutil      54. 31.100 / 54. 31.100
  libavcodec     56. 60.100 / 56. 60.100
  libavformat    56. 40.101 / 56. 40.101
  libavdevice    56.  4.100 / 56.  4.100
  libavfilter     5. 40.101 /  5. 40.101
  libavresample   2.  1.  0 /  2.  1.  0
  libswscale      3.  1.101 /  3.  1.101
  libswresample   1.  2.101 /  1.  2.101
  libpostproc    53.  3.100 / 53.  3.100
Input #0, mov,mp4,m4a,3gp,3g2,mj2, from '/home/horvathandras/vatic/vatic/public/videouploads/DJI_0003_gazos_gabonaban_valtok_kotcse_20180710_napos_kalaszos_T4.avi':
  Metadata:
    major_brand     : qt  
    minor_version   : 537986816
    compatible_brands: qt  
    creation_time   : 2018-07-10 09:20:02
    location        : +46.715632+17.872253+31.800
    location-{    : +46.715632+17.872253+31.800
    comment         : DE=None, Mode=P, DSW=0001
  Duration: 00:00:10.80, start: 0.000000, bitrate: 101533 kb/s
    Stream #0:0(eng): Video: h264 (High) (avc1 / 0x31637661), yuv420p(tv, bt709), 4096x2160 [SAR 1:1 DAR 256:135], 101154 kb/s, 50 fps, 50 tbr, 50k tbn, 100 tbc (default)
    Metadata:
      creation_time   : 2018-07-10 09:20:02
      handler_name    : DJI.AVC
      encoder         : AVC encoder
    Stream #0:1(eng): Data: none (priv / 0x76697270), 336 kb/s
    Metadata:
      creation_time   : 2018-07-10 09:20:02
      handler_name    : DJI.Meta
Please use -b:a or -b:v, -b is ambiguous
[swscaler @ 0x2297be0] deprecated pixel format used, make sure you did set range correctly
Output #0, image2, to '/tmp/pyvision-ffmpeg-323461159/%d.jpg':
  Metadata:
    major_brand     : qt  
    minor_version   : 537986816
    compatible_brands: qt  
    comment         : DE=None, Mode=P, DSW=0001
    location        : +46.715632+17.872253+31.800
    location-{    : +46.715632+17.872253+31.800
    encoder         : Lavf56.40.101
    Stream #0:0(eng): Video: mjpeg, yuvj420p(pc), 4096x2160 [SAR 1:1 DAR 256:135], q=2-31, 10000 kb/s, 50 fps, 50 tbn, 50 tbc (default)
    Metadata:
      creation_time   : 2018-07-10 09:20:02
      handler_name    : DJI.AVC
      encoder         : Lavc56.60.100 mjpeg
Stream mapping:
  Stream #0:0 -> #0:0 (h264 (native) -> mjpeg (native))
Press [q] to stop, [?] for help
frame=    1 fps=0.0 q=18.8 size=N/A time=00:00:00.02 bitrate=N/A    frame=    5 fps=4.1 q=24.8 size=N/A time=00:00:00.10 bitrate=N/A    frame=    9 fps=5.3 q=24.8 size=N/A time=00:00:00.18 bitrate=N/A    frame=   14 fps=6.0 q=24.8 size=N/A time=00:00:00.28 bitrate=N/A    frame=   19 fps=6.4 q=24.8 size=N/A time=00:00:00.38 bitrate=N/A    frame=   24 fps=6.7 q=24.8 size=N/A time=00:00:00.48 bitrate=N/A    frame=   29 fps=6.9 q=24.8 size=N/A time=00:00:00.58 bitrate=N/A    frame=   33 fps=7.0 q=24.8 size=N/A time=00:00:00.66 bitrate=N/A    frame=   37 fps=7.1 q=24.8 size=N/A time=00:00:00.74 bitrate=N/A    frame=   42 fps=7.2 q=24.8 size=N/A time=00:00:00.84 bitrate=N/A    frame=   47 fps=7.3 q=24.8 size=N/A time=00:00:00.94 bitrate=N/A    frame=   52 fps=7.4 q=24.8 size=N/A time=00:00:01.04 bitrate=N/A    frame=   56 fps=7.4 q=24.8 size=N/A time=00:00:01.12 bitrate=N/A    frame=   61 fps=7.4 q=24.8 size=N/A time=00:00:01.22 bitrate=N/A    frame=   65 fps=7.5 q=24.8 size=N/A time=00:00:01.30 bitrate=N/A    frame=   70 fps=7.5 q=24.8 size=N/A time=00:00:01.40 bitrate=N/A    frame=   75 fps=7.5 q=24.8 size=N/A time=00:00:01.50 bitrate=N/A    frame=   80 fps=7.6 q=24.8 size=N/A time=00:00:01.60 bitrate=N/A    frame=   85 fps=7.6 q=24.8 size=N/A time=00:00:01.70 bitrate=N/A    frame=   90 fps=7.6 q=24.8 size=N/A time=00:00:01.80 bitrate=N/A    frame=   95 fps=7.7 q=24.8 size=N/A time=00:00:01.90 bitrate=N/A    frame=  100 fps=7.7 q=24.8 size=N/A time=00:00:02.00 bitrate=N/A    frame=  105 fps=7.7 q=24.8 size=N/A time=00:00:02.10 bitrate=N/A    frame=  110 fps=7.7 q=24.8 size=N/A time=00:00:02.20 bitrate=N/A    frame=  115 fps=7.7 q=24.8 size=N/A time=00:00:02.30 bitrate=N/A    frame=  120 fps=7.7 q=24.8 size=N/A time=00:00:02.40 bitrate=N/A    frame=  125 fps=7.7 q=24.8 size=N/A time=00:00:02.50 bitrate=N/A    frame=  130 fps=7.8 q=24.8 size=N/A time=00:00:02.60 bitrate=N/A    frame=  135 fps=7.8 q=24.8 size=N/A time=00:00:02.70 bitrate=N/A    frame=  140 fps=7.8 q=24.8 size=N/A time=00:00:02.80 bitrate=N/A    frame=  145 fps=7.8 q=24.8 size=N/A time=00:00:02.90 bitrate=N/A    frame=  150 fps=7.8 q=24.8 size=N/A time=00:00:03.00 bitrate=N/A    frame=  155 fps=7.8 q=24.8 size=N/A time=00:00:03.10 bitrate=N/A    frame=  160 fps=7.8 q=24.8 size=N/A time=00:00:03.20 bitrate=N/A    frame=  165 fps=7.8 q=24.8 size=N/A time=00:00:03.30 bitrate=N/A    frame=  170 fps=7.8 q=24.8 size=N/A time=00:00:03.40 bitrate=N/A    frame=  175 fps=7.8 q=24.8 size=N/A time=00:00:03.50 bitrate=N/A    frame=  180 fps=7.9 q=24.8 size=N/A time=00:00:03.60 bitrate=N/A    frame=  185 fps=7.9 q=24.8 size=N/A time=00:00:03.70 bitrate=N/A    frame=  190 fps=7.9 q=24.8 size=N/A time=00:00:03.80 bitrate=N/A    frame=  195 fps=7.9 q=24.8 size=N/A time=00:00:03.90 bitrate=N/A    frame=  200 fps=7.9 q=24.8 size=N/A time=00:00:04.00 bitrate=N/A    frame=  205 fps=7.9 q=24.8 size=N/A time=00:00:04.10 bitrate=N/A    frame=  210 fps=7.9 q=24.8 size=N/A time=00:00:04.20 bitrate=N/A    frame=  215 fps=7.9 q=24.8 size=N/A time=00:00:04.30 bitrate=N/A    frame=  220 fps=7.9 q=24.8 size=N/A time=00:00:04.40 bitrate=N/A    frame=  225 fps=7.9 q=24.8 size=N/A time=00:00:04.50 bitrate=N/A    frame=  230 fps=7.9 q=24.8 size=N/A time=00:00:04.60 bitrate=N/A    frame=  235 fps=7.9 q=24.8 size=N/A time=00:00:04.70 bitrate=N/A    frame=  240 fps=7.9 q=24.8 size=N/A time=00:00:04.80 bitrate=N/A    frame=  245 fps=7.9 q=24.8 size=N/A time=00:00:04.90 bitrate=N/A    frame=  250 fps=7.9 q=24.8 size=N/A time=00:00:05.00 bitrate=N/A    frame=  255 fps=7.9 q=24.8 size=N/A time=00:00:05.10 bitrate=N/A    frame=  260 fps=7.9 q=24.8 size=N/A time=00:00:05.20 bitrate=N/A    frame=  265 fps=7.9 q=24.8 size=N/A time=00:00:05.30 bitrate=N/A    frame=  270 fps=7.9 q=24.8 size=N/A time=00:00:05.40 bitrate=N/A    frame=  274 fps=7.9 q=24.8 size=N/A time=00:00:05.48 bitrate=N/A    frame=  279 fps=7.9 q=24.8 size=N/A time=00:00:05.58 bitrate=N/A    frame=  284 fps=7.9 q=24.8 size=N/A time=00:00:05.68 bitrate=N/A    frame=  289 fps=7.9 q=24.8 size=N/A time=00:00:05.78 bitrate=N/A    frame=  294 fps=7.9 q=24.8 size=N/A time=00:00:05.88 bitrate=N/A    frame=  299 fps=7.9 q=24.8 size=N/A time=00:00:05.98 bitrate=N/A    frame=  304 fps=7.9 q=24.8 size=N/A time=00:00:06.08 bitrate=N/A    frame=  309 fps=7.9 q=24.8 size=N/A time=00:00:06.18 bitrate=N/A    frame=  314 fps=7.9 q=24.8 size=N/A time=00:00:06.28 bitrate=N/A    frame=  318 fps=7.9 q=24.8 size=N/A time=00:00:06.36 bitrate=N/A    frame=  323 fps=7.9 q=24.8 size=N/A time=00:00:06.46 bitrate=N/A    frame=  328 fps=7.9 q=24.8 size=N/A time=00:00:06.56 bitrate=N/A    frame=  333 fps=7.9 q=24.8 size=N/A time=00:00:06.66 bitrate=N/A    frame=  338 fps=7.9 q=24.8 size=N/A time=00:00:06.76 bitrate=N/A    frame=  343 fps=7.9 q=24.8 size=N/A time=00:00:06.86 bitrate=N/A    frame=  347 fps=7.9 q=24.8 size=N/A time=00:00:06.94 bitrate=N/A    frame=  351 fps=7.9 q=24.8 size=N/A time=00:00:07.02 bitrate=N/A    frame=  355 fps=7.9 q=24.8 size=N/A time=00:00:07.10 bitrate=N/A    frame=  359 fps=7.9 q=24.8 size=N/A time=00:00:07.18 bitrate=N/A    frame=  363 fps=7.9 q=24.8 size=N/A time=00:00:07.26 bitrate=N/A    frame=  368 fps=7.9 q=24.8 size=N/A time=00:00:07.36 bitrate=N/A    frame=  373 fps=7.9 q=24.8 size=N/A time=00:00:07.46 bitrate=N/A    frame=  378 fps=8.0 q=24.8 size=N/A time=00:00:07.56 bitrate=N/A    frame=  383 fps=8.0 q=24.8 size=N/A time=00:00:07.66 bitrate=N/A    frame=  388 fps=8.0 q=24.8 size=N/A time=00:00:07.76 bitrate=N/A    frame=  393 fps=8.0 q=24.8 size=N/A time=00:00:07.86 bitrate=N/A    frame=  398 fps=8.0 q=24.8 size=N/A time=00:00:07.96 bitrate=N/A    frame=  403 fps=8.0 q=24.8 size=N/A time=00:00:08.06 bitrate=N/A    frame=  408 fps=8.0 q=24.8 size=N/A time=00:00:08.16 bitrate=N/A    frame=  413 fps=8.0 q=24.8 size=N/A time=00:00:08.26 bitrate=N/A    frame=  418 fps=8.0 q=24.8 size=N/A time=00:00:08.36 bitrate=N/A    frame=  422 fps=8.0 q=24.8 size=N/A time=00:00:08.44 bitrate=N/A    frame=  427 fps=8.0 q=24.8 size=N/A time=00:00:08.54 bitrate=N/A    frame=  432 fps=8.0 q=24.8 size=N/A time=00:00:08.64 bitrate=N/A    frame=  437 fps=8.0 q=24.8 size=N/A time=00:00:08.74 bitrate=N/A    frame=  442 fps=8.0 q=24.8 size=N/A time=00:00:08.84 bitrate=N/A    frame=  447 fps=8.0 q=24.8 size=N/A time=00:00:08.94 bitrate=N/A    frame=  452 fps=8.0 q=24.8 size=N/A time=00:00:09.04 bitrate=N/A    frame=  457 fps=8.0 q=24.8 size=N/A time=00:00:09.14 bitrate=N/A    frame=  462 fps=8.0 q=24.8 size=N/A time=00:00:09.24 bitrate=N/A    frame=  467 fps=8.0 q=24.8 size=N/A time=00:00:09.34 bitrate=N/A    frame=  472 fps=8.0 q=24.8 size=N/A time=00:00:09.44 bitrate=N/A    frame=  477 fps=8.0 q=24.8 size=N/A time=00:00:09.54 bitrate=N/A    frame=  482 fps=8.0 q=24.8 size=N/A time=00:00:09.64 bitrate=N/A    frame=  487 fps=8.0 q=24.8 size=N/A time=00:00:09.74 bitrate=N/A    frame=  492 fps=8.0 q=24.8 size=N/A time=00:00:09.84 bitrate=N/A    frame=  497 fps=8.0 q=24.8 size=N/A time=00:00:09.94 bitrate=N/A    frame=  502 fps=8.0 q=24.8 size=N/A time=00:00:10.04 bitrate=N/A    frame=  507 fps=8.0 q=24.8 size=N/A time=00:00:10.14 bitrate=N/A    frame=  512 fps=8.0 q=24.8 size=N/A time=00:00:10.24 bitrate=N/A    frame=  517 fps=8.0 q=24.8 size=N/A time=00:00:10.34 bitrate=N/A    frame=  522 fps=8.0 q=24.8 size=N/A time=00:00:10.44 bitrate=N/A    frame=  527 fps=8.0 q=24.8 size=N/A time=00:00:10.54 bitrate=N/A    frame=  532 fps=8.0 q=24.8 size=N/A time=00:00:10.64 bitrate=N/A    frame=  537 fps=8.0 q=24.8 size=N/A time=00:00:10.74 bitrate=N/A    frame=  540 fps=8.0 q=24.8 Lsize=N/A time=00:00:10.80 bitrate=N/A    
video:502524kB audio:0kB subtitle:0kB other streams:0kB global headers:0kB muxing overhead: unknown
+ turkic load DJI_0003_gazos_gabonaban_valtok_kotcse_20180710_napos_kalaszos_T4 /home/horvathandras/vatic/vatic/videos/DJI_0003_gazos_gabonaban_valtok_kotcse_20180710_napos_kalaszos_T4 $'Pozit\303\255vROI' $'Negat\303\255vROI' $'T\303\272r\303\241s' '~Friss' '~1-2Hetes' '~Régebbi' '~Egyéb1' '~Egyéb2' '~Egyéb3' $'R\303\241g\303\241s' '~Friss' '~1-2Hetes' '~Régebbi' '~Egyéb1' '~Egyéb2' '~Egyéb3' $'T\303\266r\303\251s' '~Friss' '~1-2Hetes' '~Régebbi' '~Egyéb1' '~Egyéb2' '~Egyéb3' $'Tapos\303\241s' '~Friss' '~1-2Hetes' '~Régebbi' '~Egyéb1' '~Egyéb2' '~Egyéb3' $'Eg\303\251szs\303\251gesN\303\266v\303\251ny' $'Egy\303\251b1' $'Egy\303\251b2' $'Egy\303\251b3' $'Egy\303\251b4' $'Egy\303\251b5' Bizonytalan $'M\305\261vel\305\221\303\272t' $'Gktapos\303\241s' $'Vet\305\221hiba' $'Sz\303\251ld\303\266nt\303\251s' $'J\303\251gk\303\241r' $'Belv\303\255z' $'Asz\303\241ly' $'Er\303\263zi\303\263' $'Egyszik\305\261Gyom' $'K\303\251tszik\305\261Gyom' $'Egy\303\251bN\303\266vv\303\251delmiPR' --offline --title '$filenameNoDot Video' --length 1000 --description 'vatic annotation'
+ turkic publish --offline
+ mkdir /home/horvathandras/vatic/vatic/public/videothumbnails/DJI_0003_gazos_gabonaban_valtok_kotcse_20180710_napos_kalaszos_T4
+ cp /home/horvathandras/vatic/vatic/videos/DJI_0003_gazos_gabonaban_valtok_kotcse_20180710_napos_kalaszos_T4/0/0/31.jpg /home/horvathandras/vatic/vatic/public/videothumbnails/DJI_0003_gazos_gabonaban_valtok_kotcse_20180710_napos_kalaszos_T4/thumb.jpg
